<mxfile host="app.diagrams.net" modified="2020-10-12T09:06:02.415Z" agent="5.0 (Macintosh; Intel Mac OS X 10_15_6) AppleWebKit/537.36 (KHTML, like Gecko) Chrome/85.0.4183.121 Safari/537.36" etag="8KC6BmQLBV9wkr7O2drq" version="13.7.9" type="github">
  <diagram id="21InFQPrrHA33nDl3oOv" name="Page-1">
    <mxGraphModel dx="1892" dy="1182" grid="1" gridSize="10" guides="1" tooltips="1" connect="1" arrows="1" fold="1" page="1" pageScale="1" pageWidth="827" pageHeight="1169" background="none" math="0" shadow="1">
      <root>
        <mxCell id="0" />
        <mxCell id="1" parent="0" />
        <mxCell id="mGnhYhnjP5KmPgtmUMEQ-4" value="" style="ellipse;whiteSpace=wrap;html=1;" parent="1" vertex="1">
          <mxGeometry x="454" y="170" width="200" height="50" as="geometry" />
        </mxCell>
        <mxCell id="mGnhYhnjP5KmPgtmUMEQ-5" value="Create a new &lt;b&gt;Merchant&lt;/b&gt;" style="text;html=1;strokeColor=none;fillColor=none;align=center;verticalAlign=middle;whiteSpace=wrap;rounded=0;" parent="1" vertex="1">
          <mxGeometry x="481.5" y="175" width="145" height="40" as="geometry" />
        </mxCell>
        <mxCell id="mGnhYhnjP5KmPgtmUMEQ-7" value="" style="ellipse;whiteSpace=wrap;html=1;" parent="1" vertex="1">
          <mxGeometry x="454" y="350" width="200" height="50" as="geometry" />
        </mxCell>
        <mxCell id="mGnhYhnjP5KmPgtmUMEQ-8" value="Create a new &lt;b&gt;Tag&lt;/b&gt;" style="text;html=1;strokeColor=none;fillColor=none;align=center;verticalAlign=middle;whiteSpace=wrap;rounded=0;" parent="1" vertex="1">
          <mxGeometry x="481.5" y="355" width="145" height="40" as="geometry" />
        </mxCell>
        <mxCell id="mGnhYhnjP5KmPgtmUMEQ-9" value="" style="ellipse;whiteSpace=wrap;html=1;" parent="1" vertex="1">
          <mxGeometry x="454" y="230" width="200" height="50" as="geometry" />
        </mxCell>
        <mxCell id="mGnhYhnjP5KmPgtmUMEQ-10" value="Edit an existing &lt;b&gt;Merchant&lt;/b&gt;" style="text;html=1;strokeColor=none;fillColor=none;align=center;verticalAlign=middle;whiteSpace=wrap;rounded=0;" parent="1" vertex="1">
          <mxGeometry x="481.5" y="235" width="145" height="40" as="geometry" />
        </mxCell>
        <mxCell id="mGnhYhnjP5KmPgtmUMEQ-11" value="" style="ellipse;whiteSpace=wrap;html=1;" parent="1" vertex="1">
          <mxGeometry x="454" y="410" width="200" height="50" as="geometry" />
        </mxCell>
        <mxCell id="mGnhYhnjP5KmPgtmUMEQ-12" value="Edit an existing &lt;b&gt;Tag&lt;/b&gt;" style="text;html=1;strokeColor=none;fillColor=none;align=center;verticalAlign=middle;whiteSpace=wrap;rounded=0;" parent="1" vertex="1">
          <mxGeometry x="481.5" y="415" width="145" height="40" as="geometry" />
        </mxCell>
        <mxCell id="mGnhYhnjP5KmPgtmUMEQ-13" value="" style="ellipse;whiteSpace=wrap;html=1;" parent="1" vertex="1">
          <mxGeometry x="454" y="680" width="200" height="50" as="geometry" />
        </mxCell>
        <mxCell id="mGnhYhnjP5KmPgtmUMEQ-14" value="View all &lt;b&gt;Transactions&lt;/b&gt;, plus a total amount spent" style="text;html=1;strokeColor=none;fillColor=none;align=center;verticalAlign=middle;whiteSpace=wrap;rounded=0;" parent="1" vertex="1">
          <mxGeometry x="481.5" y="685" width="145" height="40" as="geometry" />
        </mxCell>
        <mxCell id="mGnhYhnjP5KmPgtmUMEQ-15" value="" style="ellipse;whiteSpace=wrap;html=1;" parent="1" vertex="1">
          <mxGeometry x="454" y="530" width="200" height="80" as="geometry" />
        </mxCell>
        <mxCell id="mGnhYhnjP5KmPgtmUMEQ-16" value="Log a new &lt;b&gt;Transaction&lt;/b&gt;, assigning a &lt;b&gt;Merchant,&lt;/b&gt;&amp;nbsp;a&amp;nbsp;&lt;b&gt;Tag&lt;/b&gt; and adding an amount spent and a transaction date" style="text;html=1;strokeColor=none;fillColor=none;align=center;verticalAlign=middle;whiteSpace=wrap;rounded=0;" parent="1" vertex="1">
          <mxGeometry x="464" y="550" width="180" height="40" as="geometry" />
        </mxCell>
        <mxCell id="mGnhYhnjP5KmPgtmUMEQ-17" value="" style="ellipse;whiteSpace=wrap;html=1;" parent="1" vertex="1">
          <mxGeometry x="454" y="740" width="200" height="80" as="geometry" />
        </mxCell>
        <mxCell id="mGnhYhnjP5KmPgtmUMEQ-18" value="View &lt;b&gt;Transactions&lt;/b&gt; assigned to a specific &lt;b&gt;Merchant&lt;/b&gt;, as well as a total spend amount" style="text;html=1;strokeColor=none;fillColor=none;align=center;verticalAlign=middle;whiteSpace=wrap;rounded=0;" parent="1" vertex="1">
          <mxGeometry x="474" y="760" width="160" height="40" as="geometry" />
        </mxCell>
        <mxCell id="mGnhYhnjP5KmPgtmUMEQ-20" value="" style="ellipse;whiteSpace=wrap;html=1;" parent="1" vertex="1">
          <mxGeometry x="454" y="830" width="200" height="80" as="geometry" />
        </mxCell>
        <mxCell id="mGnhYhnjP5KmPgtmUMEQ-21" value="View &lt;b&gt;Transactions&lt;/b&gt; assigned to a specific &lt;b&gt;Tag&lt;/b&gt;, as well as a total spend amount" style="text;html=1;strokeColor=none;fillColor=none;align=center;verticalAlign=middle;whiteSpace=wrap;rounded=0;" parent="1" vertex="1">
          <mxGeometry x="474" y="850" width="160" height="40" as="geometry" />
        </mxCell>
        <mxCell id="mGnhYhnjP5KmPgtmUMEQ-22" value="" style="ellipse;whiteSpace=wrap;html=1;" parent="1" vertex="1">
          <mxGeometry x="454" y="920" width="200" height="80" as="geometry" />
        </mxCell>
        <mxCell id="mGnhYhnjP5KmPgtmUMEQ-23" value="Sort &lt;b&gt;Transactions&lt;/b&gt; alphabetically by &lt;b&gt;Merchant&lt;/b&gt; / &lt;b&gt;Tag&lt;/b&gt; name" style="text;html=1;strokeColor=none;fillColor=none;align=center;verticalAlign=middle;whiteSpace=wrap;rounded=0;" parent="1" vertex="1">
          <mxGeometry x="474" y="940" width="160" height="40" as="geometry" />
        </mxCell>
        <mxCell id="wHaU4OHXkfwTbFJblGTH-1" style="rounded=0;orthogonalLoop=1;jettySize=auto;html=1;exitX=1;exitY=0.3333333333333333;exitDx=0;exitDy=0;exitPerimeter=0;entryX=0;entryY=0.5;entryDx=0;entryDy=0;startArrow=none;startFill=0;endArrow=none;endFill=0;" parent="1" source="mGnhYhnjP5KmPgtmUMEQ-24" target="mGnhYhnjP5KmPgtmUMEQ-9" edge="1">
          <mxGeometry relative="1" as="geometry">
            <mxPoint x="424" y="330" as="targetPoint" />
          </mxGeometry>
        </mxCell>
        <mxCell id="wHaU4OHXkfwTbFJblGTH-2" style="edgeStyle=none;rounded=0;orthogonalLoop=1;jettySize=auto;html=1;exitX=1;exitY=0.3333333333333333;exitDx=0;exitDy=0;exitPerimeter=0;entryX=0;entryY=0.5;entryDx=0;entryDy=0;startArrow=none;startFill=0;endArrow=none;endFill=0;" parent="1" source="mGnhYhnjP5KmPgtmUMEQ-24" target="mGnhYhnjP5KmPgtmUMEQ-7" edge="1">
          <mxGeometry relative="1" as="geometry" />
        </mxCell>
        <mxCell id="wHaU4OHXkfwTbFJblGTH-3" style="edgeStyle=none;rounded=0;orthogonalLoop=1;jettySize=auto;html=1;exitX=1;exitY=0.3333333333333333;exitDx=0;exitDy=0;exitPerimeter=0;entryX=0;entryY=0.5;entryDx=0;entryDy=0;startArrow=none;startFill=0;endArrow=none;endFill=0;" parent="1" source="mGnhYhnjP5KmPgtmUMEQ-24" target="mGnhYhnjP5KmPgtmUMEQ-11" edge="1">
          <mxGeometry relative="1" as="geometry" />
        </mxCell>
        <mxCell id="wHaU4OHXkfwTbFJblGTH-4" style="edgeStyle=none;rounded=0;orthogonalLoop=1;jettySize=auto;html=1;exitX=1;exitY=0.3333333333333333;exitDx=0;exitDy=0;exitPerimeter=0;entryX=0;entryY=0.5;entryDx=0;entryDy=0;startArrow=none;startFill=0;endArrow=none;endFill=0;" parent="1" source="mGnhYhnjP5KmPgtmUMEQ-24" target="mGnhYhnjP5KmPgtmUMEQ-15" edge="1">
          <mxGeometry relative="1" as="geometry" />
        </mxCell>
        <mxCell id="wHaU4OHXkfwTbFJblGTH-5" style="edgeStyle=none;rounded=0;orthogonalLoop=1;jettySize=auto;html=1;exitX=1;exitY=0.3333333333333333;exitDx=0;exitDy=0;exitPerimeter=0;entryX=0;entryY=0.5;entryDx=0;entryDy=0;startArrow=none;startFill=0;endArrow=none;endFill=0;" parent="1" source="mGnhYhnjP5KmPgtmUMEQ-24" target="mGnhYhnjP5KmPgtmUMEQ-13" edge="1">
          <mxGeometry relative="1" as="geometry" />
        </mxCell>
        <mxCell id="wHaU4OHXkfwTbFJblGTH-6" style="edgeStyle=none;rounded=0;orthogonalLoop=1;jettySize=auto;html=1;exitX=1;exitY=0.3333333333333333;exitDx=0;exitDy=0;exitPerimeter=0;entryX=0;entryY=0.5;entryDx=0;entryDy=0;startArrow=none;startFill=0;endArrow=none;endFill=0;" parent="1" source="mGnhYhnjP5KmPgtmUMEQ-24" target="mGnhYhnjP5KmPgtmUMEQ-17" edge="1">
          <mxGeometry relative="1" as="geometry" />
        </mxCell>
        <mxCell id="wHaU4OHXkfwTbFJblGTH-7" style="edgeStyle=none;rounded=0;orthogonalLoop=1;jettySize=auto;html=1;exitX=1;exitY=0.3333333333333333;exitDx=0;exitDy=0;exitPerimeter=0;entryX=0;entryY=0.5;entryDx=0;entryDy=0;startArrow=none;startFill=0;endArrow=none;endFill=0;" parent="1" source="mGnhYhnjP5KmPgtmUMEQ-24" target="mGnhYhnjP5KmPgtmUMEQ-20" edge="1">
          <mxGeometry relative="1" as="geometry" />
        </mxCell>
        <mxCell id="wHaU4OHXkfwTbFJblGTH-8" style="edgeStyle=none;rounded=0;orthogonalLoop=1;jettySize=auto;html=1;exitX=1;exitY=0.3333333333333333;exitDx=0;exitDy=0;exitPerimeter=0;entryX=0;entryY=0.5;entryDx=0;entryDy=0;startArrow=none;startFill=0;endArrow=none;endFill=0;" parent="1" source="mGnhYhnjP5KmPgtmUMEQ-24" target="mGnhYhnjP5KmPgtmUMEQ-22" edge="1">
          <mxGeometry relative="1" as="geometry" />
        </mxCell>
        <mxCell id="wHaU4OHXkfwTbFJblGTH-12" style="edgeStyle=none;rounded=0;orthogonalLoop=1;jettySize=auto;html=1;exitX=1;exitY=0.3333333333333333;exitDx=0;exitDy=0;exitPerimeter=0;startArrow=none;startFill=0;endArrow=none;endFill=0;entryX=0;entryY=0.5;entryDx=0;entryDy=0;" parent="1" source="mGnhYhnjP5KmPgtmUMEQ-24" target="mGnhYhnjP5KmPgtmUMEQ-4" edge="1">
          <mxGeometry relative="1" as="geometry" />
        </mxCell>
        <mxCell id="wHaU4OHXkfwTbFJblGTH-24" style="edgeStyle=none;rounded=0;orthogonalLoop=1;jettySize=auto;html=1;exitX=1;exitY=0.3333333333333333;exitDx=0;exitDy=0;exitPerimeter=0;entryX=0;entryY=0.5;entryDx=0;entryDy=0;startArrow=none;startFill=0;endArrow=none;endFill=0;" parent="1" source="mGnhYhnjP5KmPgtmUMEQ-24" target="wHaU4OHXkfwTbFJblGTH-21" edge="1">
          <mxGeometry relative="1" as="geometry" />
        </mxCell>
        <mxCell id="wHaU4OHXkfwTbFJblGTH-28" style="edgeStyle=none;rounded=0;orthogonalLoop=1;jettySize=auto;html=1;exitX=1;exitY=0.3333333333333333;exitDx=0;exitDy=0;exitPerimeter=0;startArrow=none;startFill=0;endArrow=none;endFill=0;entryX=0;entryY=0.5;entryDx=0;entryDy=0;" parent="1" source="mGnhYhnjP5KmPgtmUMEQ-24" target="wHaU4OHXkfwTbFJblGTH-25" edge="1">
          <mxGeometry relative="1" as="geometry">
            <mxPoint x="434" y="340" as="targetPoint" />
          </mxGeometry>
        </mxCell>
        <mxCell id="wHaU4OHXkfwTbFJblGTH-32" style="edgeStyle=none;rounded=0;orthogonalLoop=1;jettySize=auto;html=1;exitX=1;exitY=0.3333333333333333;exitDx=0;exitDy=0;exitPerimeter=0;entryX=0;entryY=0.5;entryDx=0;entryDy=0;startArrow=none;startFill=0;endArrow=none;endFill=0;" parent="1" source="mGnhYhnjP5KmPgtmUMEQ-24" target="wHaU4OHXkfwTbFJblGTH-29" edge="1">
          <mxGeometry relative="1" as="geometry" />
        </mxCell>
        <mxCell id="mGnhYhnjP5KmPgtmUMEQ-24" value="User" style="shape=umlActor;verticalLabelPosition=bottom;verticalAlign=top;html=1;outlineConnect=0;" parent="1" vertex="1">
          <mxGeometry x="174" y="520" width="70" height="140" as="geometry" />
        </mxCell>
        <mxCell id="wHaU4OHXkfwTbFJblGTH-21" value="" style="ellipse;whiteSpace=wrap;html=1;" parent="1" vertex="1">
          <mxGeometry x="454" y="620" width="200" height="50" as="geometry" />
        </mxCell>
        <mxCell id="wHaU4OHXkfwTbFJblGTH-22" value="Edit an existing &lt;b&gt;Transaction&lt;/b&gt;" style="text;html=1;strokeColor=none;fillColor=none;align=center;verticalAlign=middle;whiteSpace=wrap;rounded=0;" parent="1" vertex="1">
          <mxGeometry x="481.5" y="625" width="145" height="40" as="geometry" />
        </mxCell>
        <mxCell id="wHaU4OHXkfwTbFJblGTH-25" value="" style="ellipse;whiteSpace=wrap;html=1;" parent="1" vertex="1">
          <mxGeometry x="454" y="290" width="200" height="50" as="geometry" />
        </mxCell>
        <mxCell id="wHaU4OHXkfwTbFJblGTH-26" value="List all &lt;b&gt;Merchants&lt;/b&gt;" style="text;html=1;strokeColor=none;fillColor=none;align=center;verticalAlign=middle;whiteSpace=wrap;rounded=0;" parent="1" vertex="1">
          <mxGeometry x="481.5" y="295" width="145" height="40" as="geometry" />
        </mxCell>
        <mxCell id="wHaU4OHXkfwTbFJblGTH-29" value="" style="ellipse;whiteSpace=wrap;html=1;" parent="1" vertex="1">
          <mxGeometry x="454" y="470" width="200" height="50" as="geometry" />
        </mxCell>
        <mxCell id="wHaU4OHXkfwTbFJblGTH-30" value="List all &lt;b&gt;Tags&lt;/b&gt;" style="text;html=1;strokeColor=none;fillColor=none;align=center;verticalAlign=middle;whiteSpace=wrap;rounded=0;" parent="1" vertex="1">
          <mxGeometry x="481.5" y="475" width="145" height="40" as="geometry" />
        </mxCell>
      </root>
    </mxGraphModel>
  </diagram>
</mxfile>
